<svg width="190" height="190" viewBox="0 0 190 190" fill="none" xmlns="http://www.w3.org/2000/svg">
<path d="M129.98 25H59.94C29.1 25 4 50.09 4 80.94C4 98.41 12.06 114.03 24.65 124.3C39.77 137.78 75.4 164.93 75.4 164.93L75.31 136.87H129.98C160.82 136.87 185.92 111.77 185.92 80.94C185.92 50.11 160.82 25 129.98 25ZM96.1 104.6C62.28 104.6 37.96 90.01 36.44 89.09L45.48 74.36L54.43 59.6C56.03 60.55 94.28 82.83 136.71 59.26L153.47 89.47C133.05 100.81 113.34 104.6 96.09 104.6H96.1Z" fill="#0E172A"/>
</svg>
